<svg width="11" height="19" viewBox="0 0 11 19" fill="none" xmlns="http://www.w3.org/2000/svg">
<path d="M0.213646 11.8725C0.281198 11.7952 0.361447 11.7338 0.449797 11.6919C0.538146 11.65 0.632861 11.6285 0.728515 11.6285C0.824169 11.6285 0.918883 11.65 1.00723 11.6919C1.09558 11.7338 1.17583 11.7952 1.24338 11.8725L5.0918 16.2702L8.94023 11.8725C9.07678 11.7165 9.26198 11.6289 9.45509 11.6289C9.64821 11.6289 9.83341 11.7165 9.96996 11.8725C10.1065 12.0285 10.1832 12.2401 10.1832 12.4607C10.1832 12.6813 10.1065 12.8928 9.96996 13.0488L5.60667 18.033C5.53912 18.1104 5.45887 18.1717 5.37052 18.2136C5.28217 18.2555 5.18746 18.277 5.0918 18.277C4.99615 18.277 4.90144 18.2555 4.81309 18.2136C4.72474 18.1717 4.64449 18.1104 4.57694 18.033L0.213646 13.0488C0.145923 12.9716 0.0921924 12.88 0.0555313 12.779C0.0188703 12.6781 0 12.5699 0 12.4607C0 12.3514 0.0188703 12.2432 0.0555313 12.1423C0.0921924 12.0414 0.145923 11.9497 0.213646 11.8725Z" fill="#EE6352"/>
<path d="M0.213646 11.8725C0.281198 11.7952 0.361447 11.7338 0.449797 11.6919C0.538146 11.65 0.632861 11.6285 0.728515 11.6285C0.824169 11.6285 0.918883 11.65 1.00723 11.6919C1.09558 11.7338 1.17583 11.7952 1.24338 11.8725L5.0918 16.2702L8.94023 11.8725C9.07678 11.7165 9.26198 11.6289 9.45509 11.6289C9.64821 11.6289 9.83341 11.7165 9.96996 11.8725C10.1065 12.0285 10.1832 12.2401 10.1832 12.4607C10.1832 12.6813 10.1065 12.8928 9.96996 13.0488L5.60667 18.033C5.53912 18.1104 5.45887 18.1717 5.37052 18.2136C5.28217 18.2555 5.18746 18.277 5.0918 18.277C4.99615 18.277 4.90144 18.2555 4.81309 18.2136C4.72474 18.1717 4.64449 18.1104 4.57694 18.033L0.213646 13.0488C0.145923 12.9716 0.0921924 12.88 0.0555313 12.779C0.0188703 12.6781 0 12.5699 0 12.4607C0 12.3514 0.0188703 12.2432 0.0555313 12.1423C0.0921924 12.0414 0.145923 11.9497 0.213646 11.8725Z" stroke="#EE6352"/>
<path d="M5.09171 0C5.28457 0 5.46954 0.0875205 5.60592 0.243308C5.74229 0.399095 5.81891 0.610387 5.81891 0.830704V15.7834C5.81891 16.0037 5.74229 16.215 5.60592 16.3708C5.46954 16.5266 5.28457 16.6141 5.09171 16.6141C4.89884 16.6141 4.71387 16.5266 4.5775 16.3708C4.44112 16.215 4.3645 16.0037 4.3645 15.7834V0.830704C4.3645 0.610387 4.44112 0.399095 4.5775 0.243308C4.71387 0.0875205 4.89884 0 5.09171 0Z" fill="#EE6352"/>
<path d="M5.09171 0C5.28457 0 5.46954 0.0875205 5.60592 0.243308C5.74229 0.399095 5.81891 0.610387 5.81891 0.830704V15.7834C5.81891 16.0037 5.74229 16.215 5.60592 16.3708C5.46954 16.5266 5.28457 16.6141 5.09171 16.6141C4.89884 16.6141 4.71387 16.5266 4.5775 16.3708C4.44112 16.215 4.3645 16.0037 4.3645 15.7834V0.830704C4.3645 0.610387 4.44112 0.399095 4.5775 0.243308C4.71387 0.0875205 4.89884 0 5.09171 0Z" stroke="#EE6352"/>
</svg>
